<svg id="Layer_1" enable-background="new 0 0 511.71 511.71" height="512" viewBox="0 0 511.71 511.71" width="512" xmlns="http://www.w3.org/2000/svg"><g><ellipse cx="165.808" cy="42.117" rx="42.117" ry="42.117" transform="matrix(.999 -.045 .045 .999 -1.738 7.557)"/><path d="m269.196 294.904v-149.294c0-.034 0-.068 0-.102-.132-26.384-22.042-47.849-48.84-47.849-21.958 0-84.083 0-109.097 0-26.842 0-48.787 21.465-48.919 47.849v.102 149.295c0 11.223 9.098 20.322 20.322 20.322s20.322-9.098 20.322-20.322v-149.221c.038-3.867 3.975-7.382 8.277-7.382h.493v154.104h.019v194.919c0 13.468 10.918 24.386 24.386 24.386s24.386-10.918 24.386-24.386v-194.919h10.53v194.919c0 13.468 10.918 24.386 24.386 24.386s24.386-10.918 24.386-24.386c-.09-155.992.174-30.607-.201-349.023h.713c4.258 0 8.154 3.511 8.197 7.375v149.228c0 11.223 9.098 20.322 20.322 20.322 11.22-.001 20.318-9.099 20.318-20.323z"/><path d="m365.966 307.083h-21.698v-9.564c0-6.46-5.256-11.715-11.716-11.715h-30.795c-6.46 0-11.715 5.255-11.715 11.715v9.564h-10.036c-3.557 12.807-14.798 22.409-28.449 23.531v154.601c0 9.271 7.516 16.787 16.787 16.787h2.136v3.696c0 3.32 2.691 6.011 6.011 6.011h15.1c3.32 0 6.011-2.691 6.011-6.011v-3.696h14.081c-3.417-4.726-5.439-10.523-5.439-16.787v-75.835c0-5.959 1.826-11.5 4.945-16.093v-59.888c0-3.295 2.671-5.966 5.966-5.966s5.966 2.671 5.966 5.966v49.829c3.613-1.642 7.621-2.565 11.841-2.565h9.039v-47.263c0-3.295 2.671-5.966 5.966-5.966s5.966 2.671 5.966 5.966v25.98c3.596-2.302 7.865-3.644 12.443-3.644h14.377v-31.866c-.001-9.271-7.516-16.787-16.787-16.787zm-95.461 194.919h.003c-.001.013-.002.012-.003 0zm20.798-24.162c0 3.295-2.671 5.966-5.966 5.966s-5.966-2.67-5.966-5.966v-144.441c0-3.295 2.671-5.966 5.966-5.966s5.966 2.671 5.966 5.966zm6.269 24.162h.003c-.001.012-.002.013-.003 0zm34.764-194.919h-30.362v-9.348h30.362z"/><path d="m432.584 392.197h-21.748c.096-1.162.027.108.049-13.312 0-6.459-5.255-11.715-11.716-11.715h-30.795c-6.46 0-11.715 5.255-11.715 11.715.023 13.433-.047 12.153.049 13.312h-21.748c-9.271 0-16.787 7.913-16.787 17.184v75.835c0 9.271 7.516 16.787 16.787 16.787h2.136v3.696c0 3.32 2.691 6.011 6.011 6.011h14.71.39c3.32 0 6.011-2.691 6.011-6.011v-3.696h39.106v3.696c0 3.32 2.691 6.011 6.011 6.011h15.1c3.32 0 6.011-2.691 6.011-6.011v-3.696h2.136c9.271 0 16.787-7.516 16.787-16.787v-75.836c.002-9.271-7.514-17.183-16.785-17.183zm-77.662 47.168h-12.919c-2.709 0-4.905-2.196-4.905-4.905v-12.897c0-2.708 2.196-4.904 4.905-4.904h28.099c2.709 0 4.905 2.196 4.905 4.904v5.871c-8.653-.001-16.198 4.827-20.085 11.931zm20.085 21.898c-6.047 0-10.949-4.902-10.949-10.949s4.902-10.949 10.949-10.949 10.949 4.902 10.949 10.949c0 6.046-4.902 10.949-10.949 10.949zm23.947-69.066h-30.362v-13.095h30.362zm17.933 59.572c-6.851 0-12.405-5.554-12.405-12.404 0-6.852 5.554-12.405 12.405-12.405s12.405 5.554 12.405 12.405c0 6.85-5.554 12.404-12.405 12.404z"/></g></svg>